<svg width="70" height="76" viewBox="0 0 70 76" fill="none" xmlns="http://www.w3.org/2000/svg">
<path d="M29.2188 32.888V41.1271H1.5705V32.888H11.2405V12.2326C10.8251 12.7865 10.1789 13.3404 9.30186 13.8942C8.42487 14.4712 7.45557 15.002 6.41703 15.4867C5.37848 15.9944 4.29379 16.3867 3.18601 16.7098C2.07823 17.033 1.08585 17.1945 0.231934 17.1945V8.70154C1.03969 8.70154 2.05515 8.44767 3.23216 7.91686C4.40918 7.38605 5.56311 6.76293 6.71705 6.04749C7.8479 5.33205 8.84029 4.61661 9.67112 3.90117C10.502 3.20881 11.0328 2.63184 11.2636 2.2395H20.5873V32.888H29.2188Z" fill="#3CB54A"/>
<path d="M69.3527 21.164C69.3527 24.1642 68.9142 26.9106 68.0142 29.4493C67.1372 31.9648 65.8909 34.1573 64.3446 35.9805C62.7753 37.8268 60.9059 39.2577 58.7596 40.2732C56.6133 41.2886 54.2823 41.7964 51.7668 41.7964C49.2281 41.7964 46.8741 41.2886 44.7508 40.2732C42.6045 39.2577 40.7582 37.8268 39.1889 35.9805C37.6195 34.1342 36.3963 31.9648 35.5193 29.4493C34.6424 26.9337 34.1808 24.1642 34.1808 21.164C34.1808 18.1638 34.6193 15.4174 35.5193 12.8787C36.3963 10.3632 37.6195 8.17069 39.1889 6.34747C40.7582 4.52425 42.6045 3.0703 44.7508 2.03175C46.8741 0.993212 49.2281 0.462402 51.7668 0.462402C54.2593 0.462402 56.5902 0.993212 58.7596 2.03175C60.9059 3.0703 62.7753 4.52425 64.3446 6.34747C65.914 8.19377 67.1372 10.3632 68.0142 12.8787C68.8912 15.3943 69.3527 18.1638 69.3527 21.164ZM60.1443 21.164C60.1443 19.3408 59.9366 17.6791 59.5212 16.1559C59.1058 14.6327 58.5288 13.3172 57.7903 12.2325C57.0518 11.1478 56.1517 10.2939 55.1362 9.71696C54.1208 9.11691 52.9899 8.83997 51.7668 8.83997C50.4974 8.83997 49.3435 9.13999 48.328 9.71696C47.3126 10.317 46.4125 11.1478 45.674 12.2325C44.9355 13.3172 44.3354 14.6327 43.9431 16.1559C43.5277 17.6791 43.3199 19.3408 43.3199 21.164C43.3199 22.9872 43.5277 24.6489 43.9431 26.1259C44.3585 27.626 44.9355 28.9184 45.674 30.0031C46.4125 31.0878 47.3126 31.9417 48.328 32.5187C49.3435 33.1188 50.4974 33.3957 51.7668 33.3957C52.9899 33.3957 54.1208 33.0957 55.1362 32.5187C56.1517 31.9187 57.0518 31.0878 57.7903 30.0031C58.5288 28.9184 59.1289 27.626 59.5212 26.1259C59.9366 24.6258 60.1443 22.9872 60.1443 21.164Z" fill="#3CB54A"/>
<path d="M34.573 75.5604H29.0802V63.4902C29.0802 61.7593 28.7802 60.5131 28.2033 59.7053C27.6263 58.9207 26.7955 58.5052 25.7569 58.5052C24.6722 58.5052 23.6337 58.9207 22.6875 59.7515C21.7412 60.5823 21.0489 61.667 20.6334 63.0056V75.5143H15.1407V63.4441C15.1407 61.7132 14.8407 60.4669 14.2637 59.6592C13.6868 58.8745 12.8559 58.4591 11.8174 58.4591C10.7558 58.4591 9.7403 58.8745 8.77099 59.6823C7.80169 60.5131 7.10933 61.5747 6.69391 62.9133V75.4681H1.1781V53.9818H6.14002V57.9514C6.9247 56.5666 8.0094 55.4819 9.39412 54.7203C10.7788 53.9587 12.3482 53.5895 14.1253 53.5895C15.9254 53.5895 17.3332 54.028 18.3025 54.905C19.2949 55.782 19.918 56.8667 20.195 58.136C21.0719 56.6589 22.1797 55.5281 23.5183 54.7434C24.8568 53.9587 26.38 53.5664 28.1109 53.5664C29.4264 53.5664 30.5111 53.8203 31.342 54.3049C32.1959 54.7896 32.8421 55.4358 33.3037 56.2435C33.7652 57.0282 34.0883 57.9283 34.273 58.9437C34.4576 59.9592 34.5499 60.9747 34.5499 62.0132V75.5604H34.573Z" fill="#3CB54A"/>
<path d="M39.3734 51.074V45.6274H44.8661V51.074H39.3734ZM39.3734 75.5605V54.0742H44.8661V75.5605H39.3734Z" fill="#3CB54A"/>
<path d="M69.8143 75.5605H64.3215V63.4904C64.3215 61.7594 64.0215 60.5132 63.4215 59.7054C62.8214 58.9208 61.9906 58.5053 60.929 58.5053C60.3751 58.5053 59.8212 58.6207 59.2442 58.8284C58.6673 59.0592 58.1365 59.3593 57.6287 59.7516C57.121 60.1439 56.6594 60.6286 56.244 61.1594C55.8286 61.7133 55.5286 62.3133 55.3439 62.9595V75.5144H49.8512V54.0281H54.8131V57.9976C55.5978 56.636 56.7517 55.5744 58.2518 54.7897C59.752 54.0281 61.4598 53.6357 63.3292 53.6357C64.6677 53.6357 65.7524 53.8896 66.6063 54.3743C67.4602 54.8589 68.1064 55.5051 68.568 56.3129C69.0296 57.0975 69.3527 57.9976 69.5373 59.0131C69.722 60.0285 69.8143 61.044 69.8143 62.0825V75.5605Z" fill="#3CB54A"/>
</svg>
