<svg width="140" height="138" viewBox="0 0 140 138" fill="none" xmlns="http://www.w3.org/2000/svg">
<path d="M112.104 73.5914C112.104 97.6575 92.5279 117.222 68.4737 117.222C66.2108 117.222 63.9838 117.054 61.8166 116.719L59.1227 118.67C62.1758 119.305 65.3008 119.616 68.4737 119.616C74.6878 119.616 80.7103 118.395 86.3856 116C91.8693 113.678 96.7903 110.361 101.017 106.135C105.243 101.908 108.56 96.987 110.883 91.5033C113.277 85.828 114.499 79.7935 114.499 73.5914C114.499 72.1068 114.427 70.6341 114.295 69.1733C113.517 69.4128 112.739 69.6283 111.948 69.8079C112.044 71.0651 112.104 72.3223 112.104 73.5914Z" fill="#2F338A"/>
<path d="M55.6025 115.294L59.6854 112.337V86.1393L33.8473 105.596V131.063L50.6696 118.874L53.2079 117.03L55.6025 115.294Z" fill="#2F338A"/>
<path d="M68.4617 29.9612C68.5934 29.9612 68.7251 29.9612 68.8568 29.9612C68.9765 29.159 69.1322 28.3568 69.3118 27.5665C69.0364 27.5665 68.749 27.5546 68.4617 27.5546C62.2476 27.5546 56.2251 28.7758 50.5498 31.1705C45.0661 33.4933 40.1451 36.8098 35.9186 41.0364C31.692 45.2629 28.3755 50.1839 26.0527 55.6676C24.7236 58.8166 23.7538 62.0613 23.1552 65.3898L26.0766 63.1868C30.7461 44.1374 47.9875 29.9612 68.4617 29.9612Z" fill="#2F338A"/>
<path d="M32.6499 64.2524L21.2993 72.8012L47.4966 92.3175L58.7155 83.8764L32.6499 64.2524Z" fill="#2F338A"/>
<path d="M31.4526 131.063V105.596L5.6145 86.1393V112.337L14.6183 118.874L31.4526 131.063Z" fill="#2F338A"/>
<path d="M45.4971 93.8261L19.2997 74.2979L6.58423 83.8764L32.6498 103.5L45.4971 93.8261Z" fill="#2F338A"/>
<path d="M62.4991 116.216L64.4746 114.779V112.337V84.6067V82.2121L62.5709 80.7753L35.5355 60.4209L32.6499 58.2538L29.7644 60.4209L26.0767 63.1987L23.1552 65.4018L17.2883 69.8199L14.8458 68L13.409 69.9157L15.2888 71.3165L2.71698 80.7753L2.58527 80.8711L2.46554 80.7753L2.15424 81.1944L0.80127 82.2121V84.6067V112.337V114.779L2.77684 116.216L29.8123 135.804L32.626 137.84L35.4397 135.804L59.0867 118.67L61.7807 116.719L62.4991 116.216ZM32.6499 103.5L6.58432 83.8764L19.2998 74.2978L45.4971 93.8261L32.6499 103.5ZM47.4967 92.3175L21.2994 72.8012L32.6499 64.2523L58.7155 83.8764L47.4967 92.3175ZM5.61449 112.337V86.1393L31.4526 105.596V131.063L14.6303 118.874L5.61449 112.337ZM50.6696 118.874L33.8472 131.063V105.596L59.6854 86.1393V112.337L55.6025 115.294L53.2079 117.03L50.6696 118.874Z" fill="white"/>
<path d="M86.625 46.6997L88.1576 38.1389L95.557 35.3012L97.8199 25.5192L94.5632 18.874L88.3252 21.1011L81.2131 14.8032C80.5427 15.5455 79.8961 16.3118 79.2974 17.114C79.1538 17.3056 79.0101 17.5091 78.8664 17.7126C78.3037 18.5148 77.7649 19.341 77.274 20.1911C75.8971 22.5738 74.8434 25.1719 74.149 27.9018C73.9574 28.6801 73.7898 29.4583 73.6581 30.2605C73.3707 31.9368 73.2271 33.6489 73.2271 35.409C73.2271 40.9526 74.6997 46.137 77.274 50.6269C77.7649 51.477 78.2917 52.3032 78.8664 53.1054C78.9382 53.2011 79.0101 53.2969 79.0699 53.3927L86.625 46.6997Z" fill="#39B54A"/>
<path d="M127.837 16.5393C127.609 16.24 127.358 15.9526 127.118 15.6652C126.975 15.4976 126.819 15.318 126.675 15.1504C126.627 15.1025 126.591 15.0546 126.544 15.0067L110.907 21.9512L114.379 32.5354L119.12 39.9229L127.932 38.8453L132.985 44.4847C133.057 44.2452 133.129 44.0177 133.201 43.7782C133.955 41.1202 134.362 38.3065 134.362 35.409C134.362 31.4579 133.608 27.6743 132.243 24.2021C131.692 22.8132 131.046 21.4722 130.315 20.1911C130.195 19.9756 130.064 19.7601 129.944 19.5565C129.561 18.9219 129.154 18.3113 128.735 17.7126C128.435 17.3175 128.136 16.9224 127.837 16.5393Z" fill="#39B54A"/>
<path d="M126.987 41.3716L117.923 42.4851L112.212 33.5771L107.961 20.646L124.772 13.1748C124.544 12.9593 124.317 12.7557 124.089 12.5522C123.897 12.3726 123.694 12.2049 123.49 12.0373C123.251 11.8338 123.011 11.6422 122.772 11.4506C122.161 10.9597 121.527 10.5048 120.88 10.0617C120.677 9.93004 120.473 9.78636 120.27 9.65466C119.719 9.30744 119.168 8.97219 118.593 8.66088C118.306 8.49326 118.007 8.33761 117.707 8.18196C117.264 7.95447 116.821 7.73895 116.366 7.53541C116.043 7.39173 115.732 7.26002 115.409 7.11634C115.133 6.99661 114.846 6.88885 114.57 6.7811C114.247 6.66136 113.924 6.54163 113.601 6.43387C113.289 6.32611 112.978 6.23033 112.667 6.13454C112.319 6.02678 111.972 5.931 111.625 5.83521C111.314 5.7514 111.002 5.67956 110.691 5.60772C109.206 5.2605 107.698 5.03301 106.141 4.91328C105.363 4.85341 104.585 4.82947 103.795 4.82947C102.477 4.82947 101.172 4.91328 99.9032 5.0809C99.137 5.17669 98.3826 5.30839 97.6403 5.45207C96.6465 5.65562 95.6647 5.90705 94.7069 6.20638C94.228 6.35006 93.749 6.51769 93.2821 6.68531C92.8151 6.85293 92.3482 7.04451 91.8932 7.23608C91.2107 7.52343 90.5402 7.83474 89.8817 8.18196C89.5824 8.33761 89.283 8.49326 88.9957 8.66088C88.421 8.97219 87.8702 9.30744 87.3194 9.65466C87.1159 9.78636 86.9123 9.91807 86.7088 10.0617C86.0622 10.5048 85.4277 10.9597 84.817 11.4506C84.5776 11.6422 84.3381 11.8338 84.0986 12.0373C83.8951 12.2049 83.7035 12.3726 83.5 12.5522C83.2964 12.7318 83.0929 12.9114 82.9013 13.1029L88.852 18.3711L95.7725 15.8927L100.346 25.2318L97.5924 37.0852L90.2648 39.8869L88.8161 47.9329L80.5426 55.2605C81.5364 56.4219 82.614 57.5115 83.7754 58.5172C84.6973 59.3194 85.6671 60.0617 86.6848 60.7562C87.2955 61.1633 87.9181 61.5584 88.5646 61.9296C89.8458 62.6599 91.1868 63.3065 92.5756 63.8572C92.8391 63.965 93.1144 64.0608 93.3898 64.1685L100.514 56.3979L117.564 53.6561L121.18 60.5287C122.078 59.9061 122.952 59.2356 123.778 58.5172C124.891 57.5593 125.921 56.5177 126.891 55.4042C127.214 55.033 127.525 54.6618 127.825 54.2667C128.124 53.8836 128.423 53.4885 128.699 53.0933C129.13 52.4947 129.525 51.8841 129.908 51.2495C130.04 51.034 130.159 50.8304 130.279 50.6149C130.938 49.4655 131.524 48.2682 132.039 47.0349L126.987 41.3716Z" fill="#2F338A"/>
<path d="M116.259 56.2902L101.723 58.625L95.9163 64.9468C98.4306 65.6173 101.065 65.9765 103.783 65.9765C106.357 65.9765 108.859 65.6533 111.254 65.0546C112.032 64.863 112.81 64.6355 113.565 64.3721C115.468 63.7256 117.288 62.9114 119.001 61.9176C119.06 61.8817 119.108 61.8458 119.168 61.8218L116.259 56.2902Z" fill="#39B54A"/>
<path d="M139.139 35.409C139.139 30.6436 138.205 26.01 136.362 21.6518C134.578 17.4372 132.027 13.6657 128.783 10.4209C125.538 7.17621 121.754 4.62593 117.552 2.84192C113.193 0.998055 108.56 0.0641479 103.795 0.0641479C99.0292 0.0641479 94.3956 0.998055 90.0374 2.84192C85.8228 4.62593 82.0512 7.17621 78.8065 10.4209C75.5618 13.6657 73.0115 17.4492 71.2275 21.6518C70.4133 23.5795 69.7787 25.555 69.3238 27.5785C69.1442 28.3687 68.9885 29.1709 68.8688 29.9731C68.5934 31.7691 68.4497 33.589 68.4497 35.4209C68.4497 40.1862 69.3836 44.8199 71.2275 49.1781C72.353 51.8242 73.7658 54.3026 75.478 56.5895L74.1849 57.7389L90.7797 70.5861L92.3482 68.874C96.0239 70.1311 99.8673 70.7777 103.807 70.7777C106.572 70.7777 109.302 70.4544 111.948 69.8318C112.739 69.6402 113.517 69.4367 114.295 69.1972C115.397 68.85 116.486 68.4549 117.564 67.9999C121.778 66.2159 125.55 63.6656 128.795 60.4209C131.584 57.6311 133.847 54.4583 135.559 50.9501L136.469 51.9678L138.253 50.3634L136.625 48.5435C138.301 44.3649 139.139 39.9468 139.139 35.409ZM130.303 20.191C131.034 21.4722 131.68 22.8132 132.231 24.2021C133.596 27.6743 134.35 31.4578 134.35 35.409C134.35 38.3065 133.943 41.1202 133.189 43.7782C133.117 44.0177 133.057 44.2451 132.973 44.4846L127.921 38.8452L119.108 39.9228L114.367 32.5354L110.895 21.9511L126.532 15.0067C126.579 15.0546 126.615 15.1025 126.663 15.1503C126.819 15.318 126.963 15.4976 127.106 15.6652C127.346 15.9525 127.585 16.2399 127.825 16.5392C128.124 16.9224 128.423 17.3175 128.699 17.7126C129.13 18.3113 129.525 18.9219 129.908 19.5565C130.064 19.772 130.183 19.9875 130.303 20.191ZM78.8664 53.1053C78.3036 52.3031 77.7648 51.4769 77.2739 50.6268C74.6997 46.1489 73.227 40.9525 73.227 35.409C73.227 33.6609 73.3827 31.9367 73.658 30.2605C73.7897 29.4583 73.9574 28.68 74.1489 27.9018C74.8434 25.1599 75.897 22.5737 77.2739 20.191C77.7648 19.341 78.2917 18.5148 78.8664 17.7126C79.0101 17.5091 79.1537 17.3175 79.2974 17.1139C79.8961 16.3117 80.5426 15.5335 81.2131 14.8031L88.3252 21.101L94.5632 18.874L97.8199 25.5191L95.557 35.3012L88.1576 38.1388L86.625 46.6996L79.0819 53.3807C79.0101 53.2969 78.9382 53.2011 78.8664 53.1053ZM113.577 64.372C112.822 64.6235 112.044 64.851 111.266 65.0545C108.871 65.6532 106.369 65.9765 103.795 65.9765C101.077 65.9765 98.4425 65.6173 95.9282 64.9468L101.735 58.6249L116.271 56.2902L119.18 61.8218C119.12 61.8577 119.072 61.8936 119.012 61.9175C117.288 62.9113 115.48 63.7375 113.577 64.372ZM130.303 50.6268C130.183 50.8424 130.052 51.0579 129.932 51.2614C129.549 51.896 129.142 52.5066 128.723 53.1053C128.435 53.5004 128.148 53.8955 127.849 54.2787C127.549 54.6618 127.238 55.0449 126.915 55.4161C125.957 56.5296 124.915 57.5593 123.802 58.5291C122.976 59.2475 122.113 59.918 121.204 60.5406L117.588 53.668L100.526 56.3979L93.4018 64.1685C93.1264 64.0727 92.863 63.965 92.5876 63.8572C91.1988 63.3064 89.8578 62.6599 88.5766 61.9295C87.942 61.5584 87.3075 61.1752 86.6968 60.7562C85.6791 60.0737 84.7093 59.3194 83.7874 58.5172C82.626 57.5114 81.5484 56.4338 80.5546 55.2605L88.8281 47.9329L90.2768 39.8869L97.6044 37.0852L100.358 25.2318L95.7845 15.8927L88.864 18.3711L82.9133 13.1029C83.1049 12.9233 83.3084 12.7318 83.512 12.5522C83.7035 12.3726 83.9071 12.2049 84.1106 12.0373C84.3501 11.8338 84.5896 11.6422 84.829 11.4506C85.4397 10.9597 86.0742 10.5048 86.7208 10.0617C86.9243 9.93004 87.1279 9.78636 87.3314 9.65466C87.8822 9.30744 88.4329 8.97219 89.0077 8.66088C89.295 8.49326 89.5943 8.33761 89.8937 8.18196C90.5522 7.84671 91.2227 7.53541 91.9052 7.23608C92.3602 7.04451 92.8271 6.86491 93.2941 6.68531C93.761 6.50571 94.2399 6.35006 94.7189 6.20639C95.6767 5.90706 96.6585 5.65562 97.6523 5.45208C98.3946 5.29642 99.1489 5.17669 99.9152 5.08091C101.184 4.91328 102.489 4.82947 103.807 4.82947C104.597 4.82947 105.387 4.86539 106.153 4.91328C107.71 5.03301 109.23 5.2605 110.703 5.60773C111.014 5.67957 111.326 5.76338 111.637 5.83522C111.984 5.931 112.331 6.02679 112.679 6.13455C112.99 6.23033 113.301 6.32612 113.613 6.43387C113.936 6.54163 114.259 6.66137 114.582 6.7811C114.87 6.88885 115.145 6.99661 115.421 7.11635C115.744 7.24805 116.067 7.39173 116.378 7.53541C116.833 7.73895 117.276 7.95447 117.719 8.18196C118.019 8.33761 118.318 8.49326 118.605 8.66088C119.18 8.97219 119.731 9.30744 120.282 9.65466C120.485 9.78636 120.689 9.91807 120.892 10.0617C121.539 10.5048 122.173 10.9597 122.784 11.4506C123.023 11.6422 123.263 11.8338 123.502 12.0373C123.706 12.2049 123.898 12.3726 124.101 12.5522C124.329 12.7557 124.556 12.9593 124.784 13.1748L107.973 20.646L112.224 33.5771L117.935 42.4851L126.999 41.3716L132.075 47.0349C131.548 48.2801 130.962 49.4774 130.303 50.6268Z" fill="white"/>
</svg>
