<svg width="144" height="91" viewBox="0 0 144 91" fill="none" xmlns="http://www.w3.org/2000/svg">
<path d="M128.475 0.663269H15.5248V77.5073H128.475V0.663269ZM119.537 71.4262H24.4634V6.74435H119.551V71.4262H119.537Z" fill="#2F338A"/>
<path d="M24.4634 71.4262H119.551V6.74432H24.4634V71.4262Z" fill="white"/>
<path d="M0.223511 78.9854C0.223511 85.362 5.37554 90.5141 11.7381 90.5141H132.248C138.61 90.5141 143.762 85.362 143.762 78.9994V78.9854H0.223511Z" fill="#2F338A"/>
<path d="M71.9999 60.8406C84.019 60.8406 93.7623 51.0973 93.7623 39.0782C93.7623 27.0592 84.019 17.3159 71.9999 17.3159C59.9809 17.3159 50.2375 27.0592 50.2375 39.0782C50.2375 51.0973 59.9809 60.8406 71.9999 60.8406Z" fill="#39B54A"/>
<path d="M73.0416 46.9612C75.7162 46.8908 77.0394 45.9617 77.0394 44.2021C77.0394 43.3435 76.6875 42.6819 75.9836 42.2033C75.2798 41.7247 74.2945 41.2883 73.0416 40.8801L71.451 40.3874C71.2258 40.3311 71.0005 40.2748 70.7753 40.2185C70.5501 40.1622 70.3249 40.0918 70.0996 40.0073C68.8187 39.6554 67.7066 39.2753 66.7635 38.853C65.8204 38.4307 65.0321 37.9521 64.3986 37.375C63.7652 36.8119 63.3007 36.1503 62.9769 35.4043C62.6672 34.6582 62.4983 33.7714 62.4983 32.7438C62.4983 31.491 62.7235 30.3649 63.1599 29.3654C63.5963 28.366 64.2016 27.5214 64.9758 26.8176C65.75 26.1137 66.6509 25.5648 67.7207 25.1565C68.7764 24.7483 69.9166 24.4949 71.1132 24.3964V20.5394H73.3795V24.3542C75.0405 24.4809 76.5749 24.8187 77.9685 25.3677C79.362 25.9167 80.6008 26.5642 81.6565 27.2962L79.348 31.5473C79.1931 31.3643 78.9116 31.1532 78.5034 30.8998C78.0811 30.6464 77.6025 30.393 77.0253 30.1256C76.4623 29.8581 75.8288 29.6188 75.1531 29.4077C74.4775 29.1965 73.7736 29.0558 73.0416 28.9713L71.451 28.9291C69.058 29.0839 67.8615 30.0693 67.8615 31.9133C67.8615 32.772 68.1571 33.4195 68.7483 33.8559C69.3395 34.2922 70.2404 34.7005 71.451 35.0524L73.0416 35.5028L73.9848 35.728C75.2939 36.08 76.4904 36.46 77.5602 36.8542C78.63 37.2624 79.5309 37.7551 80.277 38.3604C81.0231 38.9657 81.5861 39.6836 81.9943 40.5282C82.4026 41.3728 82.5996 42.4144 82.5996 43.6391C82.5996 45.0186 82.3603 46.201 81.8677 47.1864C81.375 48.1717 80.7134 48.9741 79.8688 49.6076C79.0242 50.241 78.0388 50.7055 76.9268 51.0293C75.8007 51.339 74.6323 51.522 73.3936 51.5783V55.7309H71.1272V51.536C69.3677 51.4094 67.6503 51.0574 65.9752 50.4662C64.3001 49.875 62.7798 49.1008 61.4285 48.1436L63.737 43.6532C63.9341 43.8502 64.286 44.1177 64.7787 44.4414C65.2714 44.7652 65.8626 45.089 66.5523 45.3987C67.2421 45.7083 68.0163 46.0039 68.8609 46.2855C69.7055 46.567 70.5782 46.75 71.4791 46.8485L73.0416 46.9612Z" fill="white"/>
</svg>
