<svg width="150" height="150" viewBox="0 0 150 150" fill="none" xmlns="http://www.w3.org/2000/svg">
<path d="M150 0H0V150H150V0Z" fill="white"/>
<path d="M63.6923 35.0626H41.0599V57.6949H63.6923V35.0626Z" fill="#39B54A"/>
<path d="M86.3413 35.0626H63.709V57.6949H86.3413V35.0626Z" fill="#2F338A"/>
<path d="M86.3246 12.447H63.6923V35.0793H86.3246V12.447Z" fill="#39B54A"/>
<path d="M108.94 35.0458H86.3079V57.6782H108.94V35.0458Z" fill="#39B54A"/>
<path d="M27.0048 57.6949V71.7333L42.9362 84.9509L58.6163 97.9674L58.4823 121.588H92.2884L92.3889 97.9674L108.069 84.9509L124.001 71.7333V57.6949H27.0048Z" fill="#2F338A"/>
<path d="M103.06 89.1054C98.1852 86.1068 94.9185 80.7125 94.9185 74.5812H94.617H92.5732H92.2717C92.2717 83.9792 84.6326 91.6183 75.2346 91.6183C65.8366 91.6183 58.1975 83.9792 58.1975 74.5812H55.8689C55.8689 80.545 52.7865 85.8052 48.1294 88.8541C48.0289 88.9211 47.9451 88.9714 47.8446 89.0384L49.7209 90.5964C49.8046 90.5294 49.9051 90.4623 49.9889 90.4121C53.1886 88.1505 55.6679 84.9508 57.0249 81.2151C59.7387 88.6363 66.8752 93.9636 75.2346 93.9636C83.7447 93.9636 90.9985 88.4521 93.5951 80.7963C94.9688 84.8503 97.6659 88.3181 101.167 90.6634" fill="white"/>
<path d="M19.6671 74.598H21.9957C21.9957 83.9625 29.5845 91.5848 38.9323 91.635C42.199 91.6183 45.2646 90.6802 47.8445 89.0552L49.7207 90.6131C46.6718 92.6904 42.9863 93.9301 39.016 93.9636C38.9825 93.9636 38.949 93.9636 38.9155 93.9636C38.882 93.9636 38.8485 93.9636 38.815 93.9636C30.5394 93.8798 23.5034 88.5861 20.8063 81.2151C18.0924 88.6364 10.9559 93.9636 2.59656 93.9636V91.635C12.0281 91.635 19.6671 83.9792 19.6671 74.598Z" fill="#2F338A"/>
<path d="M131.154 74.598H128.825C128.825 83.9625 121.236 91.5848 111.889 91.635C108.622 91.6183 105.556 90.6802 102.976 89.0552L101.1 90.6131C104.149 92.6904 107.835 93.9301 111.805 93.9636C111.838 93.9636 111.872 93.9636 111.905 93.9636C111.939 93.9636 111.972 93.9636 112.006 93.9636C120.281 93.8798 127.317 88.5861 130.015 81.2151C132.728 88.6364 139.865 93.9636 148.224 93.9636V91.635C138.793 91.635 131.154 83.9792 131.154 74.598Z" fill="#2F338A"/>
</svg>
