<svg width="24" height="24" viewBox="0 0 24 24" fill="none" xmlns="http://www.w3.org/2000/svg">
<path d="M18.7266 0.914062H5.27344C2.775 0.914062 0.75 2.93906 0.75 5.4375V18.5625C0.75 21.0609 2.775 23.0859 5.27344 23.0859H18.7266C21.225 23.0859 23.25 21.0609 23.25 18.5625V5.4375C23.25 2.93906 21.225 0.914062 18.7266 0.914062ZM12 17.2969C9.075 17.2969 6.70312 14.925 6.70312 12C6.70312 9.075 9.075 6.70312 12 6.70312C14.925 6.70312 17.2969 9.075 17.2969 12C17.2969 14.925 14.925 17.2969 12 17.2969ZM18.8297 6.56719C18.2063 6.56719 17.7 6.06094 17.7 5.4375C17.7 4.81406 18.2063 4.30781 18.8297 4.30781C19.4531 4.30781 19.9594 4.81406 19.9594 5.4375C19.9594 6.06094 19.4531 6.56719 18.8297 6.56719Z" fill="white"/>
</svg>
