<svg width="234" height="350" viewBox="0 0 234 350" fill="none" xmlns="http://www.w3.org/2000/svg">
<path d="M227.701 0H6.29879C2.83446 0 0 2.83358 0 6.29685V230.99C14.5397 208.741 37.2678 191.057 64.6151 180.982C64.7201 176.784 65.2974 172.691 66.3472 168.756L61.8856 171.904C60.5734 170.067 59.3661 168.126 58.2638 166.132L67.8695 160.78C68.1319 161.199 68.3419 161.619 68.6043 162.039C76.4778 143.096 95.2167 129.715 117 129.715C138.783 129.715 157.522 143.096 165.396 162.039C165.658 161.567 165.921 161.094 166.183 160.622L175.841 165.975C174.739 167.969 173.532 169.91 172.219 171.747L167.6 168.546C168.65 172.534 169.28 176.679 169.385 180.982C196.732 191.057 219.513 208.741 234 230.99V6.29685C234 2.83358 231.166 0 227.701 0ZM182.927 119.798L172.114 122.002C171.747 120.165 171.275 118.276 170.697 116.492L181.195 113.186C181.878 115.337 182.455 117.594 182.927 119.798ZM52.8048 113.238L63.3028 116.544C62.7254 118.328 62.253 120.217 61.8856 122.054L51.0727 119.85C51.5451 117.594 52.1225 115.39 52.8048 113.238ZM49.7604 133.388C49.7604 131.132 49.8654 128.823 50.0754 126.567L61.0458 127.669C60.8358 129.558 60.7833 131.447 60.7833 133.388V133.493H49.7604V133.388ZM50.0754 140.262L61.0458 139.16C61.2557 141.049 61.5182 142.939 61.8856 144.775L51.0727 146.979C50.6528 144.828 50.3378 142.519 50.0754 140.262ZM55.2194 159.993C54.3271 157.894 53.5397 155.742 52.8573 153.591L63.3553 150.285C63.9327 152.069 64.6151 153.906 65.3499 155.637L55.2194 159.993ZM65.2974 111.192L55.1669 106.837C56.0592 104.738 57.0565 102.691 58.1588 100.697L67.817 106.049C66.8721 107.729 66.0323 109.46 65.2974 111.192ZM70.8614 101.274L61.8331 94.9775C63.1454 93.1409 64.5101 91.3044 65.9798 89.5727L74.3257 96.7616C73.1184 98.1784 71.9112 99.7002 70.8614 101.274ZM78.2625 92.6162L70.6514 84.6402C72.2786 83.066 74.0108 81.5967 75.7954 80.1799L82.5666 88.8906C81.0969 90.045 79.6272 91.3044 78.2625 92.6162ZM148.546 90.2024C148.546 98.5982 141.67 105.472 133.272 105.472H100.676C92.2773 105.472 85.4011 98.5982 85.4011 90.2024V82.8036L81.3594 76.3493C82.6716 75.5098 84.0363 74.7226 85.4011 74.0405V66.5892C85.4011 60.5547 88.9704 55.3073 94.1144 52.8411V38.5157C94.1144 25.922 104.35 15.6897 116.948 15.6897C129.545 15.6897 139.781 25.922 139.781 38.5157V52.7361C144.925 55.2024 148.494 60.4498 148.494 66.4843V73.988C149.859 74.7226 151.223 75.5097 152.536 76.2969L148.494 82.7511V90.2024H148.546ZM151.433 88.8906L158.205 80.1799C159.989 81.5442 161.721 83.066 163.349 84.6402L155.738 92.6162C154.373 91.3044 152.903 90.045 151.433 88.8906ZM163.191 101.222C162.089 99.6477 160.934 98.1784 159.674 96.7092L168.02 89.5202C169.49 91.2519 170.907 93.036 172.219 94.925L163.191 101.222ZM166.183 106.049L175.789 100.697C176.891 102.691 177.888 104.738 178.781 106.784L168.65 111.139C167.968 109.408 167.128 107.729 166.183 106.049ZM178.833 159.835L168.703 155.48C169.437 153.748 170.12 151.964 170.697 150.127L181.195 153.433C180.565 155.637 179.725 157.789 178.833 159.835ZM182.927 146.874L172.114 144.67C172.482 142.834 172.797 140.945 172.954 139.055L183.925 140.157C183.715 142.361 183.347 144.618 182.927 146.874ZM173.269 133.336C173.269 131.447 173.164 129.505 173.007 127.669L183.977 126.567C184.187 128.823 184.345 131.079 184.345 133.388L173.269 133.336Z" fill="#1172BA"/>
<path d="M127.131 38.5156C127.131 32.9534 122.564 28.3882 117 28.3882C111.436 28.3882 106.87 32.9534 106.87 38.5156V51.2143H127.131V38.5156Z" fill="#1172BA"/>
<path d="M6.29879 350H139.361L139.833 341.185L133.324 334.258L98.996 332.421L82.0942 302.302L99.1009 259.798L148.022 237.234L191.011 250.143L188.859 262.107L200.984 271.867L210.012 264.94L233.948 278.531V231.042C219.408 208.793 196.68 191.11 169.332 181.035C169.332 181.402 169.332 181.769 169.332 182.137C169.332 210.997 145.817 234.505 116.948 234.505C88.0781 234.505 64.5626 210.997 64.5626 182.137C64.5626 181.769 64.5626 181.402 64.5626 181.035C37.2678 191.057 14.5397 208.793 0 230.99V342.916V343.703C0 343.703 0.10498 350 6.29879 350ZM15.852 259.011L13.5949 263.943C13.4374 264.311 13.0175 264.573 12.5451 264.573H6.87618C6.7712 264.573 6.61373 264.573 6.50875 264.52C5.93136 264.363 5.61642 263.786 5.77389 263.261L6.71871 260.795L3.67429 257.227C3.56931 257.122 3.51682 256.964 3.46433 256.807C3.35935 256.282 3.72678 255.757 4.35666 255.652L10.0256 254.655C10.3405 254.603 10.6555 254.655 10.9179 254.813L15.4845 257.751C15.9044 258.119 16.0619 258.591 15.852 259.011ZM26.5599 262.526L23.148 263.523C23.0431 263.576 22.8856 263.576 22.7806 263.576H17.0592C16.9018 263.576 16.6918 263.523 16.5343 263.471C15.9569 263.209 15.747 262.631 16.0094 262.159L18.2665 258.224C18.4764 257.909 18.8439 257.699 19.2638 257.699H24.9327C25.4051 257.699 25.8775 257.961 26.035 258.381L27.1898 261.32C27.4522 261.792 27.1373 262.317 26.5599 262.526ZM56.6366 243.478L53.2248 247.414C53.0148 247.676 52.6474 247.781 52.3324 247.781H51.1777V251.717C51.1777 251.979 51.0727 252.242 50.8627 252.399L49.183 253.868L49.9704 255.18C50.2328 255.6 50.0754 256.177 49.603 256.439L46.1911 258.381C45.7187 258.643 45.1413 258.591 44.7739 258.276L42.8843 256.649L35.8506 257.541L34.9583 258.276C34.8533 258.329 34.7483 258.433 34.6433 258.486L30.0767 260.427C29.4993 260.69 28.817 260.48 28.5545 260.008L27.3997 258.066C27.2948 257.909 27.2948 257.804 27.2948 257.646V256.282L25.9825 255.705L18.3715 256.649C18.1615 256.702 17.8991 256.649 17.6891 256.544L13.1225 254.603C12.86 254.498 12.7026 254.341 12.5976 254.131C12.3351 253.606 12.5976 253.029 13.175 252.819L21.1534 249.88C21.3634 249.775 21.6258 249.775 21.8358 249.828L31.389 251.664L35.4832 247.204C35.6406 247.047 35.8506 246.942 36.1131 246.889L44.7214 245.053L49.0256 237.601C49.2355 237.287 49.603 237.077 50.0229 237.077H54.5895C55.1144 237.077 55.5868 237.391 55.6918 237.864L56.8466 242.796C56.8991 242.954 56.8466 243.269 56.6366 243.478ZM71.6487 232.092C71.6487 232.616 71.1238 233.089 70.4939 233.089H65.2974L62.2005 235.765C61.7806 236.132 61.1507 236.132 60.7308 235.87L56.4791 233.141H55.2719L55.5868 233.666C55.6918 233.823 55.6918 233.928 55.6918 234.086C55.6918 234.61 55.1669 235.083 54.537 235.083H49.9704C49.498 235.083 49.0256 234.82 48.8681 234.401L47.7133 231.462C47.5559 231.095 47.6608 230.727 47.9758 230.465L51.3876 227.526C51.5976 227.317 51.9125 227.264 52.175 227.264H54.6945L56.7416 220.128C56.8466 219.708 57.319 219.393 57.8439 219.393H60.1009C60.5734 219.393 60.9408 219.603 61.1507 219.97L64.3526 226.424L67.9219 227.212L69.8116 226.372C69.969 226.32 70.1265 226.267 70.3365 226.267C70.9664 226.267 71.4912 226.687 71.4912 227.264V232.092H71.6487Z" fill="#BEE7F9"/>
<path d="M201.089 271.867L188.964 262.106L191.116 250.142L148.127 237.234L99.2059 259.798L82.1992 302.301L99.101 332.421L133.324 334.258L139.833 341.184L139.361 350H227.701C229.013 350 230.273 349.58 231.271 348.898C232.53 348.006 233.475 346.694 233.843 345.172C233.948 344.7 234 344.228 234 343.703V278.531L210.065 264.94L201.089 271.867Z" fill="#55A4DB"/>
<path d="M70.494 226.162C70.3365 226.162 70.1265 226.215 69.9691 226.267L68.0794 227.107L64.5101 226.32L61.3082 219.865C61.1508 219.498 60.7308 219.288 60.2584 219.288H58.0014C57.4765 219.288 57.0041 219.603 56.8991 220.023L54.852 227.159H52.3325C52.0175 227.159 51.7551 227.264 51.5451 227.422L48.1333 230.36C47.8183 230.622 47.7133 230.99 47.8708 231.357L49.0256 234.296C49.1831 234.715 49.603 234.978 50.1279 234.978H54.6945C55.3244 234.978 55.8493 234.558 55.8493 233.981C55.8493 233.823 55.7968 233.666 55.7443 233.561L55.4294 233.036H56.6366L60.8883 235.765C61.3607 236.08 61.9906 236.027 62.358 235.66L65.4549 232.984H70.6514C71.2813 232.984 71.8062 232.564 71.8062 231.987V227.054C71.6487 226.582 71.1238 226.162 70.494 226.162Z" fill="#55A4DB"/>
<path d="M55.6918 237.759C55.5868 237.287 55.1144 236.972 54.5895 236.972H50.0229C49.603 236.972 49.183 237.182 49.0256 237.496L44.7214 244.948L36.1131 246.784C35.8506 246.837 35.6406 246.942 35.4832 247.099L31.389 251.559L21.8883 249.775C21.6783 249.723 21.4159 249.775 21.2059 249.828L13.2275 252.766C12.6501 252.976 12.3876 253.553 12.6501 254.078C12.755 254.288 12.965 254.445 13.175 254.55L17.7416 256.492C17.9515 256.597 18.1615 256.597 18.424 256.597L26.035 255.652L27.3472 256.23V257.594C27.3472 257.751 27.3997 257.909 27.4522 258.014L28.607 259.955C28.8695 260.427 29.5518 260.637 30.1292 260.375L34.6958 258.433C34.8008 258.381 34.9058 258.328 35.0108 258.224L35.9031 257.489L42.9368 256.597L44.8264 258.224C45.1938 258.538 45.8237 258.591 46.2436 258.328L49.6555 256.387C50.1279 256.125 50.2853 255.547 50.0229 255.128L49.2355 253.816L50.9152 252.346C51.1252 252.137 51.2302 251.927 51.2302 251.664V247.729H52.3849C52.7524 247.729 53.0673 247.571 53.2773 247.361L56.6891 243.426C56.8991 243.216 56.9516 242.901 56.8991 242.639L55.6918 237.759Z" fill="#55A4DB"/>
<path d="M26.14 258.328C25.9825 257.908 25.5626 257.646 25.0377 257.646H19.3688C18.9489 257.646 18.5289 257.856 18.3715 258.171L16.1144 262.106C15.852 262.579 16.0619 263.208 16.6393 263.418C16.7968 263.471 16.9542 263.523 17.1642 263.523H22.8331C22.9381 263.523 23.0956 263.523 23.2005 263.471L26.6124 262.474C27.1898 262.316 27.5047 261.739 27.3472 261.214L26.14 258.328Z" fill="#55A4DB"/>
<path d="M15.4845 257.856L10.9179 254.918C10.6554 254.76 10.3405 254.708 10.0256 254.76L4.35666 255.757C3.72678 255.862 3.35935 256.387 3.46433 256.912C3.51682 257.069 3.56931 257.174 3.67429 257.332L6.7187 260.847L5.77389 263.314C5.56393 263.838 5.87887 264.363 6.50874 264.573C6.61372 264.626 6.77119 264.625 6.87617 264.625H12.5451C13.0175 264.625 13.4374 264.363 13.5949 263.996L15.8519 259.063C16.0619 258.591 15.9044 258.119 15.4845 257.856Z" fill="#55A4DB"/>
<path d="M158.152 80.1797L151.381 88.8903C152.903 90.0447 154.32 91.3041 155.685 92.616L163.296 84.64C161.721 83.0657 159.937 81.544 158.152 80.1797Z" fill="white"/>
<path d="M61.0458 139.161L50.0754 140.263C50.2854 142.519 50.6528 144.775 51.1252 146.979L61.9382 144.775C61.5707 142.939 61.2558 141.05 61.0458 139.161Z" fill="white"/>
<path d="M168.02 89.5728L159.674 96.7617C160.934 98.1784 162.089 99.7002 163.191 101.274L172.219 94.9776C170.907 93.0885 169.49 91.2519 168.02 89.5728Z" fill="white"/>
<path d="M67.8694 160.727L58.2638 166.132C59.3661 168.126 60.5734 170.067 61.8856 171.904L66.3472 168.756C66.9771 166.447 67.712 164.19 68.6043 162.039C68.3419 161.567 68.0794 161.147 67.8694 160.727Z" fill="white"/>
<path d="M148.546 73.9878V82.7509L152.588 76.2966C151.276 75.4571 149.911 74.7224 148.546 73.9878Z" fill="white"/>
<path d="M172.272 171.747C173.584 169.91 174.791 167.968 175.894 165.974L166.236 160.622C165.973 161.094 165.711 161.567 165.448 162.039C166.341 164.138 167.075 166.342 167.653 168.546L172.272 171.747Z" fill="white"/>
<path d="M168.703 155.48L178.833 159.835C179.725 157.736 180.513 155.585 181.195 153.433L170.697 150.127C170.12 151.964 169.49 153.748 168.703 155.48Z" fill="white"/>
<path d="M172.114 144.67L182.927 146.874C183.4 144.67 183.715 142.414 183.925 140.158L172.954 139.056C172.797 140.892 172.482 142.781 172.114 144.67Z" fill="white"/>
<path d="M172.114 122.002L182.927 119.798C182.455 117.594 181.877 115.337 181.195 113.186L170.697 116.492C171.222 118.276 171.747 120.165 172.114 122.002Z" fill="white"/>
<path d="M172.954 127.616C173.164 129.505 173.217 131.394 173.217 133.284H184.24C184.24 131.027 184.135 128.718 183.872 126.462L172.954 127.616Z" fill="white"/>
<path d="M175.841 100.697L166.236 106.05C167.18 107.676 168.02 109.408 168.755 111.14L178.886 106.784C177.941 104.738 176.891 102.691 175.841 100.697Z" fill="white"/>
<path d="M52.8573 153.591C53.5397 155.742 54.327 157.893 55.2193 159.992L65.3499 155.637C64.615 153.905 63.9327 152.121 63.3553 150.285L52.8573 153.591Z" fill="white"/>
<path d="M61.7806 94.9776L70.8089 101.274C71.9112 99.7002 73.066 98.2309 74.3257 96.7617L65.9798 89.5728C64.5101 91.3044 63.0929 93.0885 61.7806 94.9776Z" fill="white"/>
<path d="M55.1669 106.836L65.2974 111.192C66.0323 109.46 66.8721 107.729 67.8169 106.102L58.2113 100.75C57.109 102.691 56.0592 104.79 55.1669 106.836Z" fill="white"/>
<path d="M70.6514 84.64L78.2624 92.616C79.6271 91.3041 81.0969 90.0447 82.5666 88.8903L75.7954 80.1797C74.0107 81.5965 72.2786 83.0657 70.6514 84.64Z" fill="white"/>
<path d="M81.4119 76.2966L85.4536 82.7509V73.9878C84.0888 74.7224 82.7241 75.4571 81.4119 76.2966Z" fill="white"/>
<path d="M60.7834 133.388C60.7834 131.499 60.8884 129.558 61.0458 127.669L50.0754 126.567C49.8655 128.823 49.7605 131.08 49.7605 133.388V133.493H60.7834V133.388Z" fill="white"/>
<path d="M63.3553 116.544L52.8573 113.238C52.1749 115.39 51.5975 117.594 51.1776 119.85L61.9905 122.054C62.3055 120.165 62.7779 118.328 63.3553 116.544Z" fill="white"/>
<path d="M148.546 66.4841C148.546 60.4496 144.977 55.2022 139.833 52.7359V38.5155C139.833 25.9218 129.598 15.6895 117 15.6895C104.402 15.6895 94.1669 25.9218 94.1669 38.5155V52.7359C89.0229 55.2022 85.4536 60.4496 85.4536 66.4841V73.9878V82.8034V90.2022C85.4536 98.598 92.3298 105.472 100.728 105.472H133.324C141.723 105.472 148.599 98.598 148.599 90.2022V82.7509V73.9878V66.4841H148.546ZM106.869 38.5155C106.869 32.9533 111.436 28.3881 117 28.3881C122.564 28.3881 127.131 32.9533 127.131 38.5155V51.2142H106.869V38.5155ZM119.992 81.5965V90.7269H114.008V81.5965C112.171 80.8619 110.649 79.3926 109.809 77.6085C109.337 76.559 109.074 75.4571 109.074 74.2502C109.074 71.0493 110.964 68.3206 113.641 67.0613C114.69 66.589 115.793 66.2742 117 66.2742C118.207 66.2742 119.31 66.5365 120.359 67.0088C123.089 68.2682 124.979 70.9968 124.979 74.1977C124.979 75.4046 124.716 76.559 124.244 77.556C123.351 79.3926 121.882 80.8094 119.992 81.5965Z" fill="#FBB03C"/>
<path d="M120.359 67.009C119.362 66.5368 118.207 66.2744 117 66.2744C115.793 66.2744 114.638 66.5368 113.641 67.0615C110.964 68.3209 109.074 71.0495 109.074 74.2504C109.074 75.4573 109.336 76.6117 109.809 77.6087C110.649 79.3929 112.171 80.8621 114.008 81.5968V90.7272H119.992V81.5968C121.829 80.8621 123.351 79.3929 124.191 77.6087C124.663 76.5593 124.926 75.4573 124.926 74.2504C124.978 71.0495 123.089 68.2684 120.359 67.009Z" fill="#1172BA"/>
<path d="M117 234.453C145.869 234.453 169.385 210.945 169.385 182.084C169.385 181.717 169.385 181.35 169.385 180.982C169.28 176.679 168.703 172.534 167.6 168.546C167.023 166.29 166.236 164.138 165.396 162.039C157.522 143.096 138.783 129.715 117 129.715C95.2167 129.715 76.4778 143.096 68.6043 162.039C67.712 164.191 66.9247 166.447 66.3473 168.756C65.2975 172.691 64.7201 176.784 64.6151 180.982C64.6151 181.35 64.6151 181.717 64.6151 182.084C64.6151 210.945 88.1306 234.453 117 234.453ZM102.303 162.197C104.77 159.993 108.497 158.681 113.483 158.156V153.329H120.779V158.104C125.451 158.366 130.175 159.52 134.899 161.567L130.7 171.589C125.818 169.385 121.357 168.284 117.42 168.284C115.53 168.284 114.218 168.493 113.483 168.966C112.696 169.438 112.328 170.12 112.328 171.012C112.328 171.327 112.381 171.642 112.486 171.904C112.643 172.272 112.853 172.639 113.168 172.954C113.693 173.478 114.69 174.003 116.055 174.633C117.42 175.263 119.31 175.997 121.724 176.784C126.606 178.516 130.123 180.51 132.275 182.714C134.427 184.918 135.476 187.804 135.476 191.267C135.476 193.838 134.952 196.095 133.849 198.036C133.744 198.246 133.639 198.403 133.534 198.613C133.009 199.4 132.432 200.188 131.75 200.87C129.23 203.336 125.608 204.858 120.832 205.435V212.204H113.536V205.645C108.392 205.435 103.458 204.281 98.6811 202.182V190.48C99.7309 191.005 100.833 191.529 101.935 191.949C103.72 192.684 105.557 193.366 107.552 193.943C107.657 193.996 107.762 193.996 107.814 193.996C110.071 194.625 112.118 195.045 113.956 195.203C114.638 195.255 115.32 195.308 115.95 195.308C117.892 195.308 119.31 195.098 120.202 194.625C120.254 194.625 120.254 194.573 120.307 194.573C121.252 194.101 121.672 193.314 121.672 192.159C121.672 191.372 121.357 190.742 120.674 190.165C120.464 190.008 120.202 189.85 119.939 189.64C119.834 189.588 119.73 189.535 119.625 189.43C118.995 189.063 118.26 188.696 117.367 188.329C115.793 187.646 113.693 186.807 111.069 185.862C108.077 184.76 105.662 183.501 103.878 182.137C102.04 180.772 100.728 179.251 99.8883 177.519C99.2584 176.207 98.8385 174.58 98.6811 172.744C98.6286 172.219 98.6286 171.694 98.6286 171.17C98.5761 167.391 99.8358 164.4 102.303 162.197Z" fill="#3DB54A"/>
<path d="M99.8358 177.623C100.676 179.303 101.988 180.877 103.825 182.241C105.662 183.605 108.077 184.865 111.016 185.967C113.693 186.911 115.793 187.751 117.315 188.433C118.207 188.853 118.995 189.22 119.572 189.535C119.677 189.588 119.782 189.64 119.887 189.745C120.202 189.902 120.412 190.112 120.622 190.27C121.304 190.794 121.619 191.477 121.619 192.264C121.619 193.366 121.147 194.205 120.254 194.677C120.202 194.677 120.202 194.73 120.149 194.73C119.205 195.202 117.787 195.412 115.898 195.412C115.268 195.412 114.585 195.36 113.903 195.307C112.066 195.15 110.019 194.73 107.762 194.1C107.657 194.048 107.552 194.048 107.499 194.048C105.557 193.471 103.668 192.788 101.883 192.054C100.781 191.582 99.6783 191.109 98.6285 190.585V202.286C103.405 204.333 108.339 205.487 113.483 205.749V212.309H120.779V205.54C125.556 204.962 129.23 203.441 131.697 200.974C132.38 200.292 133.009 199.505 133.482 198.718C133.587 198.561 133.692 198.351 133.797 198.141C134.847 196.199 135.424 193.943 135.424 191.372C135.424 187.856 134.374 185.022 132.222 182.818C130.07 180.614 126.553 178.621 121.672 176.889C119.257 176.049 117.367 175.367 116.003 174.737C114.638 174.108 113.693 173.531 113.116 173.058C112.801 172.743 112.591 172.429 112.433 172.009C112.328 171.746 112.276 171.432 112.276 171.117C112.276 170.225 112.643 169.543 113.431 169.07C114.218 168.598 115.53 168.388 117.367 168.388C121.304 168.388 125.713 169.49 130.647 171.694L134.847 161.671C130.122 159.625 125.398 158.471 120.727 158.208V153.433H113.431V158.261C108.444 158.785 104.717 160.15 102.25 162.301C99.7833 164.453 98.5236 167.496 98.5236 171.379C98.5236 171.904 98.5236 172.481 98.5761 172.953C98.786 174.685 99.1534 176.312 99.8358 177.623Z" fill="white"/>
</svg>
