<svg width="166" height="26" viewBox="0 0 166 26" fill="none" xmlns="http://www.w3.org/2000/svg">
<g clip-path="url(#clip0)">
<path d="M10.6799 25.7174H4.26074V0.686462H10.6799C21.4588 0.686462 25.8195 6.29871 25.8195 13.2024C25.8195 20.0653 21.4588 25.7174 10.6799 25.7174ZM11.0838 3.91688H8.29808V22.4073H11.0838C18.3914 22.4073 21.8229 18.2894 21.8229 13.1616C21.8229 8.03482 18.3905 3.91688 11.0838 3.91688Z" fill="white"/>
<path d="M31.4289 5.7336C30.2181 5.7336 29.249 4.96652 29.249 3.67418C29.249 2.42258 30.2181 1.69626 31.4289 1.69626C32.6805 1.69626 33.6495 2.42349 33.6495 3.71493C33.6495 4.96652 32.6796 5.7336 31.4289 5.7336ZM29.6122 25.7174V8.84175H33.2855V25.7174H29.6122Z" fill="white"/>
<path d="M60.0914 22.7297C60.0914 22.7297 56.0541 26 50.0388 26C42.57 26 37.0791 21.3169 37.0791 13.1617C37.0791 5.08698 42.8118 0.364075 50.4418 0.364075C55.488 0.364075 59.3642 2.94786 59.3642 2.94786L59.0816 6.37933C59.0816 6.37933 55.0044 3.59359 50.5224 3.59359C45.2742 3.59359 41.1155 7.06581 41.1155 13.1617C41.1155 19.2983 45.0315 22.8103 50.0777 22.8103C53.55 22.8103 56.0522 21.3568 56.0522 21.3568V11.9101H60.0896V22.7297H60.0914Z" fill="white"/>
<path d="M66.509 5.7336C65.2981 5.7336 64.3291 4.96652 64.3291 3.67418C64.3291 2.42258 65.2981 1.69626 66.509 1.69626C67.7606 1.69626 68.7296 2.42349 68.7296 3.71493C68.7287 4.96652 67.7597 5.7336 66.509 5.7336ZM64.6923 25.7174V8.84175H68.3655V25.7174H64.6923Z" fill="white"/>
<path d="M81.7283 3.95673V25.7174H77.7715V3.95673H71.1504L71.9573 0.686462H87.9446V3.95673H81.7283Z" fill="white"/>
<path d="M111.278 25.9601C103.284 25.9601 103.002 15.0997 96.9865 15.0997H95.6135V25.7174H91.5762V0.686462H96.8243C102.476 0.686462 106.19 3.35085 106.19 7.75136C106.19 10.8197 104.05 12.9597 101.911 13.6054C105.221 14.857 107.402 22.5676 112.085 22.5676L111.278 25.9601ZM97.2292 3.83628H95.6144V11.9916H97.3505C100.217 11.9916 102.195 10.4973 102.195 7.83286C102.195 5.28892 100.136 3.83628 97.2292 3.83628Z" fill="white"/>
<path d="M137.154 25.7174H132.997L130.534 20.51H118.745L116.323 25.7174H112.083L124.397 0H124.84L137.154 25.7174ZM124.599 7.38821L120.078 17.3194H129.202L124.599 7.38821Z" fill="white"/>
<path d="M146.599 25.7174H140.18V0.686462H146.599C157.378 0.686462 161.739 6.29871 161.739 13.2024C161.739 20.0653 157.378 25.7174 146.599 25.7174ZM147.003 3.91688H144.218V22.4073H147.003C154.311 22.4073 157.742 18.2894 157.742 13.1616C157.742 8.03482 154.311 3.91688 147.003 3.91688Z" fill="white"/>
</g>
<defs>
<clipPath id="clip0">
<rect width="166" height="26" fill="white"/>
</clipPath>
</defs>
</svg>
