<svg width="237" height="46" viewBox="0 0 237 46" fill="none" xmlns="http://www.w3.org/2000/svg">
<path d="M13.3642 41.4526H4.02899V5.1257H13.3642C29.0325 5.1257 35.3788 13.2743 35.3788 23.2891C35.3657 33.2514 29.0325 41.4526 13.3642 41.4526ZM13.9435 9.8177H9.90132V36.6554H13.9567C24.5822 36.6554 29.5723 30.6754 29.5723 23.2366C29.5592 15.7977 24.569 9.8177 13.9435 9.8177Z" fill="black"/>
<path d="M43.529 12.4594C41.7647 12.4594 40.3558 11.3423 40.3558 9.47601C40.3558 7.6623 41.7647 6.61087 43.529 6.61087C45.346 6.61087 46.7548 7.6623 46.7548 9.54173C46.7548 11.3423 45.346 12.4594 43.529 12.4594ZM40.8825 41.4526V16.9674H46.2282V41.4526H40.8825Z" fill="black"/>
<path d="M85.1883 37.1154C85.1883 37.1154 79.316 41.86 70.5733 41.86C59.7108 41.86 51.7318 35.0652 51.7318 23.2234C51.7318 11.5 60.0663 4.65259 71.1658 4.65259C78.4996 4.66573 84.135 8.41144 84.135 8.41144L83.7268 13.3926C83.7268 13.3926 77.8018 9.34459 71.2843 9.34459C63.6476 9.34459 57.6041 14.3783 57.6041 23.2366C57.6041 32.1474 63.2921 37.2337 70.6391 37.2337C75.682 37.2337 79.3291 35.1309 79.3291 35.1309V21.4229H85.1883V37.1154Z" fill="black"/>
<path d="M94.5235 12.4594C92.7592 12.4594 91.3503 11.3423 91.3503 9.47601C91.3503 7.6623 92.7592 6.61087 94.5235 6.61087C96.3405 6.61087 97.7493 7.6623 97.7493 9.54173C97.7493 11.3423 96.3405 12.4594 94.5235 12.4594ZM91.8902 41.4526V16.9674H97.2358V41.4526H91.8902Z" fill="black"/>
<path d="M116.657 9.87027V41.4526H110.903V9.87027H101.278L102.45 5.1257H125.689V9.87027H116.657Z" fill="black"/>
<path d="M159.62 41.8074C147.993 41.8074 147.585 26.0491 138.843 26.0491H136.841V41.4526H130.969V5.1257H138.606C146.822 5.1257 152.22 8.9897 152.22 15.3771C152.22 19.8326 149.113 22.9343 145.992 23.8674C150.811 25.6811 153.971 36.8788 160.778 36.8788L159.62 41.8074ZM139.185 9.69942H136.841V21.528H139.369C143.53 21.528 146.413 19.3594 146.413 15.4954C146.4 11.8154 143.411 9.69942 139.185 9.69942Z" fill="black"/>
<path d="M197.237 41.4526H191.193L187.612 33.8954H170.469L166.94 41.4526H160.778L178.685 4.12686H179.33L197.237 41.4526ZM178.975 14.8514L172.404 29.2691H185.676L178.975 14.8514Z" fill="black"/>
<path d="M210.969 41.4526H201.634V5.1257H210.969C226.638 5.1257 232.984 13.2743 232.984 23.2891C232.971 33.2514 226.638 41.4526 210.969 41.4526ZM211.549 9.8177H207.507V36.6554H211.562C222.187 36.6554 227.178 30.6754 227.178 23.2366C227.164 15.7977 222.174 9.8177 211.549 9.8177Z" fill="black"/>
</svg>
