<svg width="244" height="198" viewBox="0 0 244 198" fill="none" xmlns="http://www.w3.org/2000/svg">
<path d="M234.691 0H9.30924C4.19188 0 0 4.19188 0 9.30924V173.664C16.0598 145.246 41.7555 122.925 72.6229 111.275C69.5199 104.688 67.6689 97.4476 67.3967 89.7715C56.0187 92.3302 45.7296 95.7055 37.0192 99.7885L39.7956 107.301L19.3262 99.0808L28.7443 77.7403L31.5752 86.0696C42.2999 81.17 55.0388 77.1959 69.0299 74.3106C75.0727 50.6836 96.5221 33.1539 122 33.1539C147.478 33.1539 168.927 50.6836 174.97 74.3106C189.832 77.3592 203.224 81.66 214.33 86.9951L218.141 78.1214L225.817 99.734L205.62 107.356L208.614 100.551C199.631 96.0866 188.743 92.3847 176.603 89.6082C176.331 97.2842 174.48 104.525 171.377 111.058C202.245 122.708 227.94 145.028 244 173.446V9.30924C244 4.19188 239.808 0 234.691 0Z" fill="#1172BA"/>
<path d="M171.377 111.275C162.612 129.731 143.776 142.524 122 142.524C100.224 142.524 81.3878 129.731 72.6229 111.275C41.7555 122.98 16.0598 145.246 0 173.664V187.764C0 188.743 0.16332 189.669 0.43552 190.54L12.0857 172.194L45.4029 150.853L73.6029 158.312L77.4137 197.073H91.8947L103.327 164.137L154.337 136.917L199.25 152.432L197.018 166.859L209.648 178.618L219.012 170.288L243.946 186.675V173.664C227.94 145.246 202.245 122.98 171.377 111.275Z" fill="#BEE7F9"/>
<path d="M209.648 178.618L197.018 166.858L199.25 152.432L154.392 136.917L103.381 164.136L91.9491 197.073H234.691C239.808 197.073 244 192.881 244 187.763V186.675L219.066 170.288L209.648 178.618Z" fill="#55A4DB"/>
<path d="M45.4029 150.853L12.0856 172.193L0.435486 190.54C1.63317 194.296 5.17176 197.073 9.3092 197.073H77.4681L73.6573 158.311L45.4029 150.853Z" fill="#55A4DB"/>
<path d="M176.549 89.826C188.689 92.6024 199.577 96.2499 208.56 100.768L205.565 107.573L225.763 99.9518L218.087 78.3391L214.276 87.2128C203.17 81.8233 189.778 77.5225 174.916 74.5283C176.004 78.8291 176.603 83.3476 176.603 87.975C176.603 88.5738 176.603 89.1727 176.549 89.826Z" fill="white"/>
<path d="M69.0299 74.4194C55.0388 77.2503 42.2454 81.2244 31.5752 86.1785L28.7443 77.8492L19.3262 99.1896L39.7956 107.41L37.0192 99.7885C45.7296 95.7055 56.0187 92.3302 67.3967 89.7715C67.3967 89.1727 67.3422 88.5194 67.3422 87.9205C67.3422 83.2387 67.9411 78.7202 69.0299 74.4194Z" fill="white"/>
<path d="M122 142.524C143.776 142.524 162.612 129.731 171.377 111.275C174.48 104.743 176.331 97.4477 176.603 89.8261C176.603 89.1728 176.658 88.574 176.658 87.9207C176.658 83.2933 176.059 78.7748 174.97 74.474C168.982 50.8471 147.478 33.3174 122 33.3174C96.5221 33.3174 75.0728 50.8471 69.0299 74.474C67.9411 78.7748 67.3423 83.2933 67.3423 87.9751C67.3423 88.574 67.3423 89.2272 67.3967 89.8261C67.6689 97.5021 69.5199 104.797 72.623 111.33C81.3878 129.731 100.224 142.524 122 142.524ZM102.837 96.6855C105.668 98.101 108.771 99.3531 112.092 100.279C115.413 101.204 118.353 101.748 120.857 101.748C122.926 101.748 124.45 101.476 125.43 100.986C126.41 100.496 126.9 99.6253 126.9 98.482C126.9 97.6654 126.573 97.0122 125.865 96.4133C125.158 95.8689 124.014 95.2157 122.381 94.5079C120.748 93.8002 118.57 92.9292 115.794 91.9492C112.691 90.806 110.187 89.4995 108.281 88.084C106.866 86.9952 105.722 85.852 104.851 84.5998C104.579 84.1643 104.307 83.7288 104.089 83.2933C103.218 81.4968 102.783 79.3192 102.783 76.6516C102.783 73.9841 103.327 71.752 104.47 69.8466C105.069 68.8667 105.777 67.9412 106.702 67.1791C109.316 64.8926 113.181 63.4771 118.353 62.9327V57.9243H125.974V62.8783C130.819 63.1505 135.773 64.3482 140.673 66.4713L139.258 69.8466L136.318 76.9238C131.2 74.6373 126.573 73.4941 122.49 73.4941C120.53 73.4941 119.169 73.7119 118.353 74.2018C117.536 74.6918 117.155 75.3995 117.155 76.325C117.155 77.1416 117.427 77.7948 118.026 78.3392C118.625 78.8836 119.605 79.4281 121.02 80.0813C122.436 80.7346 124.395 81.4968 126.954 82.3134C128.642 82.9122 130.166 83.5111 131.527 84.1643C134.303 85.4709 136.481 86.9408 137.951 88.4651C140.183 90.7516 141.272 93.7458 141.272 97.3932C141.272 99.6253 140.891 101.64 140.129 103.382C139.475 104.852 138.604 106.213 137.407 107.41C134.793 109.969 130.983 111.548 126.029 112.201V119.278H118.407V112.419C113.072 112.146 107.9 111.003 102.946 108.826V103.599V96.6855H102.837Z" fill="#3DB54A"/>
<path d="M118.298 112.473V119.332H125.92V112.255C130.928 111.656 134.685 110.078 137.298 107.464C138.495 106.267 139.366 104.96 140.02 103.436C140.782 101.639 141.163 99.6795 141.163 97.4475C141.163 93.8 140.074 90.8058 137.842 88.5193C136.372 86.995 134.195 85.5251 131.418 84.2186C130.057 83.5653 128.533 82.9665 126.845 82.3676C124.341 81.4966 122.381 80.7344 120.911 80.1356C119.496 79.4823 118.516 78.8835 117.917 78.3935C117.318 77.8491 117.046 77.1958 117.046 76.3792C117.046 75.4537 117.427 74.746 118.244 74.2561C119.06 73.7661 120.421 73.5484 122.381 73.5484C126.464 73.5484 131.092 74.6916 136.209 76.9781L139.149 69.9009L140.564 66.5256C135.61 64.4024 130.71 63.2048 125.865 62.9326V57.9785H118.244V62.987C113.072 63.5314 109.152 64.9468 106.594 67.2333C105.722 67.9955 104.96 68.9209 104.361 69.9009C103.273 71.8063 102.674 74.0383 102.674 76.7059C102.674 79.3734 103.109 81.551 103.98 83.3475C104.198 83.7831 104.47 84.2186 104.743 84.6541C105.614 85.9062 106.702 87.1039 108.172 88.1383C110.078 89.5537 112.582 90.8603 115.685 92.0035C118.461 92.9834 120.639 93.8545 122.272 94.5622C123.905 95.2699 125.049 95.9232 125.756 96.4676C126.464 97.012 126.791 97.7197 126.791 98.5363C126.791 99.734 126.301 100.551 125.321 101.041C124.341 101.53 122.817 101.803 120.748 101.803C118.244 101.803 115.304 101.313 111.983 100.333C108.662 99.3529 105.559 98.1552 102.728 96.7398V103.654V108.88C107.791 111.003 112.963 112.201 118.298 112.473Z" fill="white"/>
</svg>
