<svg width="80" height="80" viewBox="0 0 80 80" fill="none" xmlns="http://www.w3.org/2000/svg">
<path d="M25.4999 41.2107C25.4999 42.5131 25.3167 43.7139 24.9301 44.8128C24.5434 45.9118 24.0143 46.8683 23.3223 47.662C22.6304 48.4557 21.8367 49.0865 20.8802 49.5343C19.944 49.982 18.9265 50.2058 17.8275 50.2058C16.7286 50.2058 15.6907 49.982 14.7749 49.5343C13.8387 49.0865 13.045 48.4557 12.3531 47.662C11.6612 46.8683 11.132 45.9118 10.7454 44.8128C10.3587 43.7139 10.1755 42.5131 10.1755 41.2107C10.1755 39.9082 10.3587 38.7075 10.7454 37.6085C11.132 36.5096 11.6612 35.5531 12.3531 34.7594C13.045 33.9657 13.8387 33.3348 14.7749 32.8667C15.711 32.419 16.7286 32.1748 17.8275 32.1748C18.9061 32.1748 19.9237 32.3987 20.8802 32.8667C21.8163 33.3145 22.6304 33.9453 23.3223 34.7594C24.0143 35.5531 24.5434 36.5096 24.9301 37.6085C25.2964 38.7075 25.4999 39.9082 25.4999 41.2107ZM21.4907 41.2107C21.4907 40.417 21.4093 39.6843 21.2262 39.0331C21.043 38.3615 20.7988 37.7917 20.4732 37.3236C20.1476 36.8555 19.7609 36.4892 19.3132 36.2247C18.8654 35.9601 18.377 35.838 17.8479 35.838C17.2984 35.838 16.7896 35.9601 16.3419 36.2247C15.8942 36.4892 15.5075 36.8555 15.1819 37.3236C14.8563 37.7917 14.6121 38.3615 14.4289 39.0331C14.2457 39.7047 14.1643 40.417 14.1643 41.2107C14.1643 42.0044 14.2457 42.7167 14.4289 43.3679C14.6121 44.0191 14.8563 44.589 15.1819 45.057C15.5075 45.5251 15.8942 45.8914 16.3419 46.156C16.7896 46.4205 17.2781 46.5427 17.8479 46.5427C18.377 46.5427 18.8654 46.4205 19.3132 46.156C19.7609 45.8914 20.1476 45.5251 20.4732 45.057C20.7988 44.589 21.043 44.0191 21.2262 43.3679C21.389 42.737 21.4907 42.0044 21.4907 41.2107Z" fill="#3CB54A"/>
<path d="M28.6747 49.9209V45.6472H31.9308V49.9209H28.6747Z" fill="#3CB54A"/>
<path d="M43.1646 36.2248H33.5792V32.6023H49.4327L38.9926 53.686H34.4747L43.1646 36.2248Z" fill="#3CB54A"/>
<path d="M55.3345 37.5272C54.6426 37.5272 53.9914 37.4051 53.4012 37.1609C52.811 36.9167 52.3022 36.6114 51.8545 36.2044C51.4271 35.7974 51.0812 35.3293 50.8166 34.7798C50.552 34.2304 50.4299 33.6402 50.4299 33.0093C50.4299 32.3988 50.552 31.8086 50.8166 31.2591C51.0812 30.7096 51.4271 30.2212 51.8545 29.8345C52.2819 29.4479 52.811 29.1222 53.4012 28.878C53.9914 28.6338 54.6426 28.5117 55.3345 28.5117C56.0061 28.5117 56.637 28.6338 57.2475 28.878C57.8581 29.1222 58.3668 29.4275 58.8146 29.8345C59.2419 30.2212 59.5879 30.7096 59.8525 31.2591C60.117 31.8086 60.2391 32.3988 60.2391 33.0093C60.2391 33.6402 60.117 34.2304 59.8525 34.7798C59.5879 35.3293 59.2419 35.7974 58.8146 36.2044C58.3872 36.6114 57.8581 36.9371 57.2475 37.1609C56.637 37.4051 56.0061 37.5272 55.3345 37.5272ZM52.0987 48.5168L60.463 38.7483L68.176 28.5931L69.9873 30.2009L61.8876 39.7862L53.91 50.1245L52.0987 48.5168ZM55.3345 35.5532C55.6398 35.5532 55.9044 35.4921 56.1486 35.3497C56.3928 35.2072 56.6167 35.0241 56.8202 34.8002C57.0237 34.5763 57.1661 34.3118 57.2882 34.0065C57.39 33.7012 57.451 33.3756 57.451 33.05C57.451 32.3581 57.2475 31.7679 56.8202 31.2795C56.4131 30.791 55.9044 30.5468 55.3345 30.5468C55.0293 30.5468 54.7647 30.6079 54.5205 30.7503C54.2763 30.8928 54.0524 31.076 53.8489 31.2998C53.6454 31.5237 53.5029 31.7882 53.3808 32.0935C53.2791 32.3988 53.218 32.704 53.218 33.05C53.218 33.7419 53.4215 34.3321 53.8489 34.8409C54.2559 35.2886 54.7444 35.5532 55.3345 35.5532ZM66.7922 50.2059C66.1002 50.2059 65.449 50.0838 64.8588 49.8396C64.2686 49.5954 63.7599 49.2902 63.3121 48.8831C62.8848 48.4965 62.5388 48.008 62.2742 47.4789C62.0097 46.9294 61.8876 46.3393 61.8876 45.7084C61.8876 45.0775 62.0097 44.4873 62.2742 43.9378C62.5388 43.3883 62.8848 42.9203 63.3121 42.5132C63.7395 42.1062 64.2686 41.7806 64.8588 41.5567C65.449 41.3125 66.1002 41.1904 66.7922 41.1904C67.4841 41.1904 68.1353 41.3125 68.7255 41.5567C69.3157 41.801 69.8448 42.1062 70.2925 42.5132C70.7403 42.9203 71.0862 43.3883 71.3305 43.9378C71.5747 44.4873 71.6968 45.0775 71.6968 45.7084C71.6968 46.3393 71.5747 46.9294 71.3305 47.4789C71.0862 48.0284 70.7403 48.4965 70.2925 48.8831C69.8448 49.2698 69.3361 49.5954 68.7255 49.8396C68.115 50.0838 67.4841 50.2059 66.7922 50.2059ZM66.7922 48.2115C67.0974 48.2115 67.362 48.1505 67.6062 48.008C67.8504 47.8656 68.0743 47.6824 68.2778 47.4586C68.4813 47.2347 68.6238 46.9701 68.7459 46.6649C68.8476 46.3596 68.9087 46.0543 68.9087 45.7084C68.9087 45.342 68.8476 45.0164 68.7255 44.7112C68.6034 44.4059 68.461 44.1413 68.2574 43.9175C68.0743 43.6936 67.8504 43.5105 67.5859 43.3883C67.3213 43.2662 67.0567 43.2052 66.7922 43.2052C66.4869 43.2052 66.2223 43.2662 65.9781 43.4087C65.7339 43.5512 65.5101 43.7343 65.3065 43.9582C65.103 44.182 64.9606 44.4466 64.8385 44.7519C64.7367 45.0571 64.6757 45.3827 64.6757 45.7084C64.6757 46.4003 64.8792 46.9905 65.3065 47.4789C65.7136 47.9673 66.202 48.2115 66.7922 48.2115Z" fill="#3CB54A"/>
<path d="M66.548 80H13.452C6.02391 80 0 73.9557 0 66.548V13.452C0 6.02391 6.02391 0 13.452 0H66.548C73.9557 0 80 6.02391 80 13.452V66.548C80 73.9557 73.9557 80 66.548 80ZM13.452 4.07021C8.28288 4.07021 4.07021 8.28288 4.07021 13.452V66.548C4.07021 71.7171 8.28288 75.9298 13.452 75.9298H66.548C71.7171 75.9298 75.9298 71.7171 75.9298 66.548V13.452C75.9298 8.28288 71.7171 4.07021 66.548 4.07021H13.452Z" fill="#3CB54A"/>
</svg>
