<svg width="60" height="86" viewBox="0 0 60 86" fill="none" xmlns="http://www.w3.org/2000/svg">
<path d="M59.2061 39.3189C59.2061 34.3339 56.229 30.0412 51.9594 28.1026V22.7945C51.9594 10.7013 42.1048 0.84668 30.0116 0.84668C17.9183 0.84668 8.06373 10.7013 8.06373 22.7945V28.0795C3.79417 29.9951 0.817017 34.2877 0.817017 39.2958C0.817017 45.1578 0.817017 56.7664 0.817017 56.8818V74.4447C0.817017 80.3297 5.59431 85.1301 11.5025 85.1301H48.5438C54.4519 85.1301 59.2292 80.3528 59.2292 74.4447V56.5125L59.2061 39.3189ZM30.0116 8.76267C37.766 8.76267 44.0665 15.0632 44.0665 22.8176V27.041H15.9566V22.8176C15.9566 15.0632 22.2571 8.76267 30.0116 8.76267ZM39.3815 65.7901C39.3354 65.9055 39.2661 65.9979 39.1969 66.0902C38.92 66.5517 38.5738 66.9672 38.2045 67.3595C36.8198 68.7211 34.7889 69.5751 32.1117 69.8982V73.6831H28.0499V70.0135C25.1881 69.8751 22.4187 69.2519 19.7646 68.098V61.5898C20.3416 61.8898 20.9647 62.1668 21.5878 62.4207C22.5802 62.8361 23.6188 63.2053 24.7035 63.5284C24.7496 63.5515 24.8189 63.5515 24.865 63.5746C26.1113 63.9208 27.2652 64.1516 28.3038 64.2439C28.673 64.29 29.0423 64.29 29.4115 64.29C30.4732 64.29 31.2809 64.1746 31.7886 63.9208C31.8117 63.9208 31.8348 63.8977 31.8579 63.8977C32.3656 63.6208 32.6425 63.1823 32.6425 62.5591C32.6425 62.1206 32.4579 61.7514 32.0887 61.4514C31.9733 61.359 31.8348 61.2667 31.6732 61.1744C31.6271 61.1282 31.5578 61.1052 31.4886 61.059C31.1424 60.8744 30.727 60.6667 30.2193 60.4359C29.3423 60.0666 28.1884 59.605 26.6882 59.0742C25.0266 58.4511 23.688 57.7588 22.6725 56.9972C21.6571 56.2356 20.9186 55.3817 20.457 54.4354C20.0877 53.6969 19.88 52.7968 19.7877 51.7814C19.7646 51.5044 19.7416 51.2044 19.7416 50.9044C19.7416 48.7581 20.4339 47.0502 21.8186 45.8501C23.2034 44.627 25.2804 43.8885 28.0499 43.5884V40.9113H32.1117V43.5654C34.7196 43.7038 37.3275 44.35 39.9816 45.4809L37.6506 51.0659C34.9273 49.8428 32.4579 49.2196 30.2654 49.2196C29.2269 49.2196 28.4884 49.3581 28.0499 49.612C27.6345 49.8658 27.4037 50.2351 27.4037 50.7428C27.4037 50.9275 27.4268 51.089 27.496 51.2275C27.5652 51.4352 27.6806 51.6429 27.8653 51.8045C28.1653 52.0814 28.6961 52.4045 29.4577 52.7507C30.2193 53.0969 31.2578 53.4892 32.6195 53.9508C35.3428 54.9201 37.3044 56.0279 38.5045 57.251C39.7046 58.4973 40.2816 60.0897 40.2816 62.0283C40.2816 63.4361 39.9816 64.6824 39.3815 65.7901Z" fill="#3DB54A"/>
</svg>
