<svg width="74" height="90" viewBox="0 0 74 90" fill="none" xmlns="http://www.w3.org/2000/svg">
<path d="M40.7042 16.6709V7.64715H54.159C56.19 7.64715 57.8516 5.98548 57.8516 3.95455C57.8516 1.92363 56.19 0.261963 54.159 0.261963H19.841C17.8101 0.261963 16.1484 1.92363 16.1484 3.95455C16.1484 5.98548 17.8101 7.64715 19.841 7.64715H33.2959V16.6709C14.6252 18.5634 0.0394945 34.5338 0.385675 53.7584C0.731856 73.2368 16.4485 89.1611 35.9269 89.715C56.6054 90.315 73.6144 73.6522 73.6144 53.1122C73.6144 34.1646 59.1671 18.5403 40.7042 16.6709ZM37.0116 82.3529C20.8796 82.3529 7.77086 69.2442 7.77086 53.1122C7.77086 36.9802 20.8796 23.8715 37.0116 23.8715C53.1436 23.8715 66.2292 37.0033 66.2292 53.1122C66.2292 69.2211 53.1205 82.3529 37.0116 82.3529Z" fill="#3CB54A"/>
<path d="M58.1055 53.1122C58.1055 64.7439 48.6433 74.2061 37.0116 74.2061C25.3799 74.2061 15.9177 64.7439 15.9177 53.1122C15.9177 41.4805 25.3799 32.0183 37.0116 32.0183V27.6333C22.9567 27.6333 11.5327 39.0573 11.5327 53.1122C11.5327 67.1671 22.9567 78.5911 37.0116 78.5911C51.0665 78.5911 62.4905 67.1671 62.4905 53.1122H58.1055Z" fill="#3CB54A"/>
<path d="M40.7042 57.0587L37.0116 39.1958L33.319 57.0587H40.7042Z" fill="#3CB54A"/>
</svg>
