<svg width="24" height="20" viewBox="0 0 24 20" fill="none" xmlns="http://www.w3.org/2000/svg">
<path d="M23.0769 2.98086C22.2443 3.35062 21.3638 3.59506 20.4628 3.70657C21.4134 3.12523 22.1257 2.21068 22.4677 1.13258C21.5744 1.67693 20.5966 2.06046 19.5766 2.26649C18.8949 1.50969 17.9871 1.00591 16.9955 0.834188C16.0039 0.662463 14.9847 0.832495 14.0978 1.31762C13.2108 1.80274 12.5062 2.57552 12.0944 3.51475C11.6827 4.45398 11.5872 5.50653 11.8228 6.50734C10.0166 6.41382 8.24986 5.93239 6.6373 5.09432C5.02473 4.25625 3.60243 3.0803 2.46279 1.64284C2.06306 2.3574 1.85302 3.16662 1.85356 3.99004C1.85214 4.75474 2.03546 5.50792 2.38719 6.18254C2.73893 6.85716 3.24816 7.43228 3.86956 7.8567C3.14732 7.83658 2.44051 7.63819 1.80925 7.2784V7.3351C1.81466 8.40652 2.18143 9.44315 2.84751 10.2696C3.51358 11.0961 4.43809 11.6617 5.46463 11.8708C5.06947 11.9939 4.6592 12.0588 4.24617 12.0635C3.96027 12.0601 3.67507 12.0336 3.39325 11.9841C3.68558 12.9058 4.25129 13.7113 5.01167 14.2884C5.77205 14.8656 6.68927 15.1858 7.63571 15.2045C6.03754 16.4918 4.06438 17.1943 2.03079 17.2002C1.66053 17.2014 1.29056 17.1787 0.923096 17.1321C2.99939 18.5045 5.41901 19.233 7.89048 19.2299C9.59599 19.248 11.2879 18.9181 12.8675 18.2593C14.447 17.6006 15.8825 16.6263 17.0901 15.3933C18.2977 14.1603 19.2531 12.6933 19.9007 11.078C20.5482 9.4628 20.8749 7.73166 20.8616 5.98573C20.8616 5.79297 20.8616 5.58886 20.8616 5.38476C21.7308 4.7212 22.4804 3.90775 23.0769 2.98086Z" fill="white"/>
</svg>
