<svg width="24" height="24" viewBox="0 0 24 24" fill="none" xmlns="http://www.w3.org/2000/svg">
<path d="M20.5044 3.48953C19.3978 2.37945 18.0808 1.49934 16.6296 0.900305C15.1785 0.301272 13.6223 -0.00473655 12.0514 5.54206e-05C5.46225 5.54206e-05 0.101685 5.33549 0.101685 11.8905C0.0952968 13.978 0.64514 16.0299 1.69514 17.8369L0 24L6.33554 22.3446C8.08798 23.2946 10.0512 23.7932 12.0466 23.7952H12.0514C18.6358 23.7952 23.9952 18.4597 23.9999 11.9C24.005 10.3376 23.6986 8.78978 23.0986 7.3461C22.4986 5.90242 21.6168 4.5916 20.5044 3.48953ZM17.8965 16.1433C17.6488 16.8365 16.4298 17.5058 15.8831 17.5522C15.3316 17.6034 14.8184 17.7987 12.299 16.8138C9.26047 15.6229 7.34641 12.524 7.19568 12.324C7.04614 12.1287 5.98025 10.7138 5.98025 9.25371C5.98025 7.78884 6.75185 7.07189 7.02341 6.77416C7.29856 6.47642 7.62155 6.40139 7.82253 6.40139C8.01872 6.40139 8.2197 6.40139 8.39196 6.41092C8.6073 6.41568 8.84057 6.42878 9.06547 6.92303C9.33105 7.50897 9.91125 8.9786 9.98662 9.12747C10.0608 9.27633 10.1122 9.45379 10.0093 9.6491C9.91125 9.84918 9.85981 9.97066 9.71506 10.1469C9.56552 10.3184 9.40163 10.5328 9.26645 10.6626C9.11691 10.8115 8.96259 10.9746 9.13486 11.2724C9.30832 11.5701 9.90647 12.5419 10.7941 13.3279C11.9342 14.3426 12.8972 14.6546 13.1963 14.8035C13.4953 14.9524 13.6676 14.9286 13.8411 14.7285C14.0181 14.5332 14.5887 13.8639 14.7897 13.5661C14.9859 13.2684 15.1869 13.3196 15.4572 13.4173C15.7324 13.5149 17.2002 14.2354 17.4993 14.3843C17.7984 14.5332 17.9946 14.6082 18.0699 14.7297C18.1441 14.8547 18.1441 15.4502 17.8965 16.1433Z" fill="white"/>
</svg>
